# xmcd
#
# Track frame offsets: 
#        150
#        20252
#        41745
#        59892
#        83300
#        98262
#        115500
#        132940
#        151055
#
# Disc length: 2246 seconds
#
# Revision: 2
# Processed by: cddbd v1.5.2PL0 Copyright (c) Steve Scherf et al.
# Submitted via: ExactAudioCopyFreeDBPlugin 1.0
#
DISCID=5d08c409
DTITLE=Casey Jones - (I-94) On My Way To Chicago
DYEAR=1995
DGENRE=blues
TTITLE0=(I-94) On My Way To Chicago - Part 1
TTITLE1=Down Home Woman
TTITLE2=It Ain t Nothing But The Blues
TTITLE3=Ain t That Love
TTITLE4=She Treats Me Right
TTITLE5=I Know I Got A Good Woman
TTITLE6=Just Me And My Whiskey
TTITLE7=Sugar Mama
TTITLE8=(I-94) On My Way To Chicago - Part 2
EXTD=
EXTT0=
EXTT1=
EXTT2=
EXTT3=
EXTT4=
EXTT5=
EXTT6=
EXTT7=
EXTT8=
PLAYORDER=
